HIERARCHY
ROOT Hips
{
	OFFSET -3.958830 18.904000 13.208200
	CHANNELS 6 Xposition Yposition Zposition Zrotation Yrotation Xrotation 
	JOINT LHipJoint
	{
		OFFSET 0.000000 0.000000 0.000000
		CHANNELS 3 Zrotation Yrotation Xrotation
		JOINT LeftUpLeg
		{
			OFFSET 1.800000 -1.400000 0.085000
			CHANNELS 3 Zrotation Yrotation Xrotation
			JOINT LeftLeg
			{
				OFFSET 2.215000 -6.000000 0.000000
				CHANNELS 3 Zrotation Yrotation Xrotation
				JOINT LeftFoot
				{
					OFFSET 2.500000 -6.900000 0.000000
					CHANNELS 3 Zrotation Yrotation Xrotation
					JOINT LeftToeBase
					{
						OFFSET 0.200000 -0.500000 1.950000
						CHANNELS 3 Zrotation Yrotation Xrotation
						End Site
						{
							OFFSET 0.000000 0.000000 0.000000
						}
					}
				}
			}
		}
	}
	JOINT RHipJoint
	{
		OFFSET 0.000000 0.000000 0.000000
		CHANNELS 3 Zrotation Yrotation Xrotation
		JOINT RightUpLeg
		{
			OFFSET -1.800000 -1.400000 0.085000
			CHANNELS 3 Zrotation Yrotation Xrotation
			JOINT RightLeg
			{
				OFFSET -2.215000 -6.000000 0.000000
				CHANNELS 3 Zrotation Yrotation Xrotation
				JOINT RightFoot
				{
					OFFSET -2.500000 -6.900000 0.000000
					CHANNELS 3 Zrotation Yrotation Xrotation
					JOINT RightToeBase
					{
						OFFSET -0.200000 -0.500000 1.950000
						CHANNELS 3 Zrotation Yrotation Xrotation
						End Site
						{
							OFFSET 0.000000 0.000000 0.000000
						}
					}
				}
			}
		}
	}
	JOINT LowerBack
	{
		OFFSET 0.000000 0.000000 0.000000
		CHANNELS 3 Zrotation Yrotation Xrotation
		JOINT Spine
		{
			OFFSET -0.087000 1.940000 -0.288900
			CHANNELS 3 Zrotation Yrotation Xrotation
			JOINT Spine1
			{
				OFFSET 0.000000 1.950000 0.060000
				CHANNELS 3 Zrotation Yrotation Xrotation
				JOINT Neck
				{
					OFFSET 0.000000 0.000000 0.000000
					CHANNELS 3 Zrotation Yrotation Xrotation
					JOINT Neck1
					{
						OFFSET 0.000000 1.600000 0.340000
						CHANNELS 3 Zrotation Yrotation Xrotation
						JOINT Head
						{
							OFFSET 0.000000 1.667000 -0.240000
							CHANNELS 3 Zrotation Yrotation Xrotation
							End Site
							{
								OFFSET 0.000000 0.000000 0.000000
							}
						}
					}
				}
				JOINT LeftShoulder
				{
					OFFSET 0.000000 0.000000 0.000000
					CHANNELS 3 Zrotation Yrotation Xrotation
					JOINT LeftArm
					{
						OFFSET 2.700000 1.550000 -0.730000
						CHANNELS 3 Zrotation Yrotation Xrotation
						JOINT LeftForeArm
						{
							OFFSET 5.450000 0.000000 0.000000
							CHANNELS 3 Zrotation Yrotation Xrotation
							JOINT LeftHand
							{
								OFFSET 3.450000 0.000000 0.000000
								CHANNELS 3 Zrotation Yrotation Xrotation
								JOINT LeftHandIndex1
								{
									OFFSET 0.750000 0.000000 0.000000
									CHANNELS 3 Zrotation Yrotation Xrotation
									End Site
									{
										OFFSET 0.000000 0.000000 0.000000
									}
								}
							}
						}
					}
				}
				JOINT RightShoulder
				{
					OFFSET 0.000000 0.000000 0.000000
					CHANNELS 3 Zrotation Yrotation Xrotation
					JOINT RightArm
					{
						OFFSET -2.700000 1.550000 -0.730000
						CHANNELS 3 Zrotation Yrotation Xrotation
						JOINT RightForeArm
						{
							OFFSET -5.450000 0.000000 0.000000
							CHANNELS 3 Zrotation Yrotation Xrotation
							JOINT RightHand
							{
								OFFSET -3.450000 0.000000 0.000000
								CHANNELS 3 Zrotation Yrotation Xrotation
								JOINT RightHandIndex1
								{
									OFFSET -0.750000 0.000000 0.000000
									CHANNELS 3 Zrotation Yrotation Xrotation
									End Site
									{
										OFFSET 0.000000 0.000000 0.000000
									}
								}
							}
						}
					}
				}
			}
		}
	}
}
MOTION
Frames: 4
Frame Time: 0.016667
0.902360 18.140180 -1.797600 1.598020 -30.660604 -17.283019 -15.746176 11.074445 1.815798 0.768195 3.053946 5.090585 -15.701579 8.967973 9.781996 -0.458800 5.895662 2.556814 0.112250 -0.004080 -0.062210 18.771568 -4.911488 9.559688 -0.605839 45.454496 -75.782853 4.537076 -7.990347 71.238602 -1.869298 -9.933434 1.097958 0.121380 0.320190 -0.030270 -4.477681 -3.095371 -9.922865 15.738052 -2.906087 49.678606 -2.160208 3.150243 9.887853 -1.038374 -11.410357 -12.348796 -27.920933 11.161761 40.795762 -8.381040 1.691940 -22.435490 -21.537630 -22.299080 3.028747 -8.845565 -6.086318 -13.586065 60.344949 -62.581176 -36.334560 -3.511186 1.738856 0.788800 -0.011230 -0.029290 0.021390 23.525917 32.295954 9.843748 30.576550 21.622313 -15.188529 0.759875 58.477687 -2.339102 1.450895 -1.027662 -0.468160 0.734090 0.510340 -0.243640 
0.903130 18.137870 -1.799920 1.589509 -30.706728 -17.104646 -15.752388 11.019021 1.800754 0.568714 3.053805 5.155359 -15.566761 8.864750 9.566300 -0.471764 5.869052 2.571019 0.110310 -0.009900 -0.057360 18.784725 -4.850116 9.643068 -0.039193 45.761723 -75.833907 3.473542 -7.200001 70.998371 -1.830980 -9.782378 1.138376 0.123070 0.326290 -0.033650 -4.514574 -3.057413 -9.943833 15.831048 -2.933821 49.540352 -2.200681 3.173936 9.998320 -1.121624 -11.451919 -12.318023 -27.904045 11.141744 40.568680 -8.390120 1.700650 -22.435300 -21.207458 -22.231193 3.034207 -8.784869 -6.111123 -13.524498 60.160761 -62.409739 -36.103677 -3.513900 1.736367 0.789530 -0.008370 -0.033920 0.019910 23.353014 32.247959 9.781565 30.629919 21.787973 -15.129892 0.634184 58.536819 -2.402743 1.448819 -1.021841 -0.476340 0.742880 0.512720 -0.246910 
0.905090 18.141700 -1.813890 1.788388 -31.054607 -17.007529 -15.781061 10.954129 1.765578 0.308552 3.071390 4.993203 -15.521405 8.813169 9.489666 -0.482586 5.828688 2.578366 0.117810 0.001180 -0.048690 18.790810 -4.712743 9.792451 1.576458 46.291547 -74.620151 1.580251 -5.774495 70.545920 -1.782332 -9.538533 1.203400 0.132460 0.315520 -0.036970 -4.530845 -3.069432 -9.994252 15.630797 -2.644196 49.687563 -2.082241 3.411077 10.145327 -1.221748 -11.498227 -12.322381 -27.926820 11.123685 40.393842 -8.456350 1.727990 -22.618000 -20.920481 -22.261668 2.985807 -8.301104 -6.105829 -13.512947 59.579107 -62.155636 -35.504318 -3.510937 1.759709 0.788100 -0.013140 -0.030450 0.016410 23.253921 32.426137 9.783709 30.228783 22.007084 -15.173698 0.263321 58.315645 -2.551960 1.447418 -1.023245 -0.474970 0.741200 0.508940 -0.250510 
0.911110 18.153170 -1.832820 1.819044 -31.707473 -16.838948 -15.811540 10.887327 1.714080 0.263396 3.066461 4.696535 -15.501620 8.787218 9.481757 -0.497111 5.788419 2.589055 0.127130 0.017750 -0.046080 18.796593 -4.573439 9.956397 3.735173 46.902466 -72.539013 -0.239565 -4.403676 69.931097 -1.748247 -9.313328 1.269454 0.143550 0.310770 -0.041400 -4.569368 -3.051668 -10.046442 15.773304 -2.398968 49.984968 -2.026789 3.813301 10.415375 -1.272626 -11.610668 -12.492839 -28.208247 11.132875 40.274766 -8.431990 1.606650 -22.816340 -20.682563 -22.518700 2.971540 -7.756339 -6.100653 -13.573822 58.444586 -61.837141 -34.553106 -3.505417 1.792640 0.791250 -0.018320 -0.024860 0.019930 23.128963 32.887136 9.959252 29.537282 22.028328 -15.562909 -0.385789 58.237870 -2.913311 1.435233 -1.028741 -0.475420 0.746720 0.503130 -0.248430 
